<svg xmlns="http://www.w3.org/2000/svg" xml:space="preserve" width="40" height="40" viewBox="0 0 10.58 10.58"><g fill="#00222b"><path fill="#292929" d="M0 0h10.58v10.58H0z"/><path fill="#fff" d="M2.07 2.7h1.2q.61 0 .91.32.3.33.3.96v.51q0 .63-.3.96-.3.32-.9.32h-.4v2.11h-.8zm1.2 2.33q.2 0 .3-.1.1-.12.1-.39v-.61q0-.27-.1-.38-.1-.11-.3-.11H2.9v1.6zM6 2.7h1.22q.63 0 .92.3.29.28.29.9v.2q0 .4-.13.65t-.4.36v.02q.61.2.61 1.08v.44q0 .6-.32.92-.31.31-.92.31H6zm1.11 2.1q.25 0 .37-.13.12-.12.12-.42v-.29q0-.28-.1-.4-.1-.13-.31-.13h-.4V4.8zm.15 2.33q.22 0 .32-.1.1-.13.1-.4v-.46q0-.35-.12-.49t-.4-.14H6.8v1.6z" aria-label="PB"/></g></svg>
