<?xml version="1.0" encoding="utf-8"?>
<!-- Generator: Adobe Illustrator 19.0.0, SVG Export Plug-In . SVG Version: 6.00 Build 0)  -->
<svg version="1.1" id="Layer_1" xmlns="http://www.w3.org/2000/svg" xmlns:xlink="http://www.w3.org/1999/xlink" x="0px" y="0px"
	 viewBox="-191 407.1 212.9 27.8" style="enable-background:new -191 407.1 212.9 27.8;" xml:space="preserve">
<style type="text/css">
	.st0{stroke:#FFFFFF;stroke-miterlimit:10;}
	.st1{fill:#FFFFFF;}
	.st2{fill:#ED1C24;}
</style>
<g id="XMLID_92_">
	<path id="XMLID_301_" class="st0" d="M-181.4,421.1"/>
	<path id="XMLID_300_" class="st1" d="M-181.4,434.9h15.2c5.1,0,9.2-6.2,9.2-13.8c0-7.6-4-13.8-9.1-13.8h-15.3V434.9z"/>
	<g id="XMLID_295_">
		<ellipse id="XMLID_299_" cx="-181.4" cy="421.1" rx="9" ry="13.2"/>
		<path id="XMLID_296_" class="st1" d="M-181.4,434.9c-5.3,0-9.6-6.2-9.6-13.8c0-7.6,4.3-13.8,9.6-13.8c5.3,0,9.6,6.2,9.6,13.8
			C-171.8,428.7-176,434.9-181.4,434.9z M-181.4,408.5c-4.6,0-8.4,5.6-8.4,12.6s3.8,12.6,8.4,12.6c4.6,0,8.4-5.7,8.4-12.6
			C-173,414.2-176.7,408.5-181.4,408.5z"/>
	</g>
	<path id="XMLID_294_" class="st0" d="M-186.8,421.6"/>
	<g id="XMLID_290_">
		<path id="XMLID_291_" d="M-185.8,423.9c-0.7,0-1.3-0.8-1.3-1.7s0.6-1.7,1.3-1.7s1.3,0.8,1.3,1.7S-185.1,423.9-185.8,423.9z
			 M-185.8,420.8c-0.5,0-1,0.6-1,1.4c0,0.8,0.4,1.4,1,1.4c0.5,0,1-0.6,1-1.4C-184.8,421.4-185.3,420.8-185.8,420.8z"/>
	</g>
	<path id="XMLID_289_" class="st0" d="M-182.3,428.8"/>
	<path id="XMLID_288_" class="st0" d="M-181.8,416"/>
	<path id="XMLID_287_" class="st0" d="M-181.3,427.4"/>
	<path id="XMLID_286_" class="st1" d="M-185.8,422.8h14.3c0.6,0,1-0.7,1-1.5c0-0.8-0.5-1.5-1-1.5h-14.3V422.8z"/>
	<g id="XMLID_281_">
		<ellipse id="XMLID_285_" class="st1" cx="-185.8" cy="421.3" rx="1" ry="1.4"/>
		<path id="XMLID_282_" d="M-185.8,422.9c-0.7,0-1.3-0.7-1.3-1.7s0.6-1.7,1.3-1.7s1.3,0.7,1.3,1.7S-185.1,422.9-185.8,422.9z
			 M-185.8,420.1c-0.4,0-0.8,0.5-0.8,1.1c0,0.6,0.3,1.1,0.8,1.1c0.4,0,0.8-0.5,0.8-1.1C-185,420.6-185.4,420.1-185.8,420.1z"/>
	</g>
	<path id="XMLID_280_" class="st0" d="M-181.9,428.1"/>
	<path id="XMLID_279_" class="st1" d="M-182,428.4h14.3c0.6,0,1-0.7,1-1.5s-0.5-1.5-1-1.5H-182V428.4z"/>
	<g id="XMLID_274_">
		<ellipse id="XMLID_278_" class="st1" cx="-182" cy="426.9" rx="1" ry="1.4"/>
		<path id="XMLID_275_" d="M-182,428.5c-0.7,0-1.3-0.7-1.3-1.7c0-0.9,0.6-1.7,1.3-1.7s1.3,0.7,1.3,1.7S-181.3,428.5-182,428.5z
			 M-182,425.7c-0.4,0-0.8,0.5-0.8,1.1s0.3,1.1,0.8,1.1c0.4,0,0.8-0.5,0.8-1.1S-181.6,425.7-182,425.7z"/>
	</g>
	<path id="XMLID_273_" class="st0" d="M-182.5,416.4"/>
	<path id="XMLID_272_" class="st1" d="M-182.7,417.3h14.3c0.6,0,1-0.7,1-1.5c0-0.8-0.5-1.5-1-1.5h-14.3V417.3z"/>
	<g id="XMLID_267_">
		<ellipse id="XMLID_271_" class="st1" cx="-182.7" cy="415.8" rx="1" ry="1.4"/>
		<path id="XMLID_268_" d="M-182.7,417.4c-0.7,0-1.3-0.7-1.3-1.6s0.6-1.7,1.3-1.7s1.3,0.8,1.3,1.7S-182,417.4-182.7,417.4z
			 M-182.7,414.6c-0.4,0-0.8,0.5-0.8,1.1c0,0.6,0.3,1.1,0.8,1.1c0.4,0,0.8-0.5,0.8-1.1C-181.9,415.1-182.3,414.6-182.7,414.6z"/>
	</g>
	<path id="XMLID_266_" d="M-181.4,433.7v-1.2c4.1,0,7.3-5.1,7.3-11.4c0-6.3-3.3-11.4-7.3-11.4v-1.2c4.7,0,8.5,5.7,8.5,12.6
		C-172.9,428-176.7,433.7-181.4,433.7z"/>
	<g id="XMLID_303_">
		<path id="XMLID_304_" class="st2" d="M-135.4,414.3c1.2,0.7,2.2,1.6,2.8,2.8c0.7,1.2,1,2.6,1,4.2s-0.3,3-1,4.2
			c-0.7,1.2-1.6,2.2-2.8,2.8c-1.2,0.7-2.6,1-4.1,1c-1.1,0-2.2-0.2-3.1-0.7c-0.9-0.4-1.7-1.1-2.4-1.9v8.1h-2.9v-21.4h2.7v2.5
			c0.6-0.9,1.4-1.5,2.4-2c1-0.4,2-0.7,3.2-0.7C-138,413.3-136.6,413.6-135.4,414.3z M-137.1,426.1c0.8-0.5,1.4-1.1,1.9-2
			c0.5-0.8,0.7-1.8,0.7-2.9c0-1.1-0.2-2.1-0.7-2.9c-0.5-0.8-1.1-1.5-1.9-1.9c-0.8-0.5-1.7-0.7-2.7-0.7s-1.9,0.2-2.7,0.7
			s-1.4,1.1-1.9,1.9c-0.5,0.8-0.7,1.8-0.7,2.9c0,1.1,0.2,2.1,0.7,2.9c0.5,0.8,1.1,1.5,1.9,2s1.7,0.7,2.7,0.7
			S-137.9,426.6-137.1,426.1z"/>
		<path id="XMLID_307_" class="st2" d="M-122.7,414c1-0.5,2.2-0.7,3.5-0.7v2.8c-0.2,0-0.4,0-0.7,0c-1.5,0-2.8,0.5-3.6,1.4
			c-0.9,0.9-1.3,2.2-1.3,3.9v7.9h-2.9v-15.9h2.7v2.7C-124.4,415.1-123.7,414.4-122.7,414z"/>
		<path id="XMLID_309_" class="st2" d="M-113.3,428.3c-1.2-0.7-2.2-1.7-2.9-2.9c-0.7-1.2-1.1-2.6-1.1-4.1s0.4-2.9,1.1-4.1
			c0.7-1.2,1.7-2.2,2.9-2.9c1.2-0.7,2.7-1,4.2-1c1.6,0,3,0.3,4.2,1c1.2,0.7,2.2,1.6,2.9,2.9c0.7,1.3,1.1,2.6,1.1,4.1
			s-0.4,2.9-1.1,4.1s-1.7,2.2-2.9,2.9c-1.2,0.7-2.6,1-4.2,1C-110.6,429.3-112,429-113.3,428.3z M-106.3,426.1c0.8-0.5,1.4-1.1,1.9-2
			c0.5-0.8,0.7-1.8,0.7-2.9c0-1.1-0.2-2.1-0.7-2.9c-0.5-0.8-1.1-1.5-1.9-1.9c-0.8-0.4-1.7-0.6-2.7-0.6s-1.9,0.2-2.7,0.7
			c-0.8,0.5-1.4,1.1-1.9,1.9s-0.7,1.8-0.7,2.9s0.2,2.1,0.7,2.9c0.5,0.8,1.1,1.5,1.9,2s1.7,0.7,2.7,0.7
			C-108,426.8-107.1,426.6-106.3,426.1z"/>
		<path id="XMLID_312_" class="st1" d="M-84.4,414.3c1.2,0.7,2.2,1.6,2.8,2.8c0.7,1.2,1,2.6,1,4.2s-0.3,3-1,4.2
			c-0.7,1.2-1.6,2.2-2.8,2.8c-1.2,0.7-2.6,1-4.1,1c-1.1,0-2.2-0.2-3.1-0.7c-0.9-0.4-1.7-1.1-2.4-1.9v8.1h-2.9v-21.4h2.7v2.5
			c0.6-0.9,1.4-1.5,2.4-2c1-0.4,2-0.7,3.2-0.7C-87,413.3-85.6,413.6-84.4,414.3z M-86.1,426.1c0.8-0.5,1.4-1.1,1.9-2
			c0.5-0.8,0.7-1.8,0.7-2.9c0-1.1-0.2-2.1-0.7-2.9c-0.5-0.8-1.1-1.5-1.9-1.9c-0.8-0.5-1.7-0.7-2.7-0.7s-1.9,0.2-2.7,0.7
			c-0.8,0.5-1.4,1.1-1.9,1.9c-0.5,0.8-0.7,1.8-0.7,2.9c0,1.1,0.2,2.1,0.7,2.9c0.5,0.8,1.1,1.5,1.9,2s1.7,0.7,2.7,0.7
			C-87.8,426.8-86.9,426.6-86.1,426.1z"/>
		<path id="XMLID_315_" class="st1" d="M-71.7,414c1-0.5,2.2-0.7,3.5-0.7v2.8c-0.2,0-0.4,0-0.7,0c-1.5,0-2.8,0.5-3.6,1.4
			c-0.9,0.9-1.3,2.2-1.3,3.9v7.9h-2.9v-15.9h2.7v2.7C-73.4,415.1-72.7,414.4-71.7,414z"/>
		<path id="XMLID_317_" class="st1" d="M-62.3,428.3c-1.2-0.7-2.2-1.7-2.9-2.9c-0.7-1.2-1.1-2.6-1.1-4.1s0.4-2.9,1.1-4.1
			c0.7-1.2,1.7-2.2,2.9-2.9c1.3-0.7,2.7-1,4.2-1s3,0.3,4.2,1c1.2,0.7,2.2,1.6,2.9,2.9c0.7,1.2,1.1,2.6,1.1,4.1s-0.4,2.9-1.1,4.1
			c-0.7,1.2-1.7,2.2-2.9,2.9c-1.2,0.7-2.6,1-4.2,1S-61,429-62.3,428.3z M-55.3,426.1c0.8-0.5,1.4-1.1,1.9-2c0.5-0.8,0.7-1.8,0.7-2.9
			c0-1.1-0.2-2.1-0.7-2.9c-0.5-0.8-1.1-1.5-1.9-1.9c-0.8-0.5-1.7-0.7-2.7-0.7s-1.9,0.2-2.7,0.7s-1.4,1.1-1.9,1.9
			c-0.5,0.8-0.7,1.8-0.7,2.9c0,1.1,0.2,2.1,0.7,2.9c0.5,0.8,1.1,1.5,1.9,2c0.8,0.5,1.7,0.7,2.7,0.7S-56.1,426.6-55.3,426.1z
			 M-56.2,407.2h3.6l-5,3.9h-2.7L-56.2,407.2z"/>
		<path id="XMLID_321_" class="st1" d="M-33.4,414.3c1.2,0.7,2.2,1.6,2.8,2.8c0.7,1.2,1,2.6,1,4.2s-0.3,3-1,4.2
			c-0.7,1.2-1.6,2.2-2.8,2.8c-1.2,0.7-2.6,1-4.1,1c-1.2,0-2.2-0.2-3.2-0.7s-1.8-1.1-2.4-2v2.5h-2.7v-22h2.9v8.7
			c0.6-0.8,1.4-1.5,2.4-1.9s2-0.6,3.1-0.6C-36,413.3-34.6,413.6-33.4,414.3z M-35.1,426.1c0.8-0.5,1.4-1.1,1.9-2
			c0.5-0.8,0.7-1.8,0.7-2.9c0-1.1-0.2-2.1-0.7-2.9c-0.5-0.8-1.1-1.5-1.9-1.9c-0.8-0.5-1.7-0.7-2.7-0.7s-1.9,0.2-2.7,0.7
			s-1.4,1.1-1.9,1.9c-0.5,0.8-0.7,1.8-0.7,2.9c0,1.1,0.2,2.1,0.7,2.9c0.5,0.8,1.1,1.5,1.9,2c0.8,0.5,1.7,0.7,2.7,0.7
			S-35.9,426.6-35.1,426.1z"/>
		<path id="XMLID_324_" class="st1" d="M-15,414.9c1.2,1.1,1.7,2.7,1.7,4.8v9.5H-16v-2.1c-0.5,0.7-1.2,1.3-2,1.7
			c-0.9,0.4-1.9,0.6-3.1,0.6c-1.8,0-3.2-0.4-4.2-1.3c-1.1-0.9-1.6-2-1.6-3.4c0-1.4,0.5-2.5,1.5-3.3s2.6-1.3,4.8-1.3h4.5v-0.6
			c0-1.2-0.4-2.2-1.1-2.8c-0.7-0.7-1.8-1-3.2-1c-0.9,0-1.8,0.2-2.7,0.5c-0.9,0.3-1.6,0.7-2.3,1.2l-1.2-2.1c0.8-0.7,1.8-1.2,2.9-1.5
			c1.1-0.3,2.3-0.5,3.6-0.5C-17.8,413.3-16.2,413.8-15,414.9z M-17.8,426.4c0.8-0.5,1.4-1.2,1.7-2.1v-2.2h-4.4
			c-2.4,0-3.6,0.8-3.6,2.4c0,0.8,0.3,1.4,0.9,1.9c0.6,0.5,1.5,0.7,2.6,0.7C-19.6,427.1-18.6,426.9-17.8,426.4z"/>
		<path id="XMLID_327_" class="st1" d="M-8.7,428.8c-0.4-0.4-0.6-0.9-0.6-1.5s0.2-1.1,0.6-1.4c0.4-0.4,0.9-0.6,1.4-0.6
			c0.6,0,1,0.2,1.4,0.6s0.6,0.9,0.6,1.5s-0.2,1.1-0.6,1.5c-0.4,0.4-0.8,0.6-1.4,0.6C-7.8,429.3-8.3,429.2-8.7,428.8z"/>
		<path id="XMLID_329_" class="st1" d="M11.2,414.3c1.2,0.7,2.2,1.6,2.8,2.8c0.7,1.2,1,2.6,1,4.2s-0.3,3-1,4.2
			c-0.7,1.2-1.6,2.2-2.8,2.8c-1.2,0.7-2.6,1-4.1,1c-1.1,0-2.2-0.2-3.1-0.7s-1.7-1.1-2.4-1.9v8.1h-2.9v-21.4h2.7v2.5
			c0.6-0.9,1.4-1.5,2.4-2c1-0.4,2-0.7,3.2-0.7C8.7,413.3,10,413.6,11.2,414.3z M9.6,426.1c0.8-0.5,1.4-1.1,1.9-2
			c0.5-0.8,0.7-1.8,0.7-2.9c0-1.1-0.2-2.1-0.7-2.9c-0.5-0.8-1.1-1.5-1.9-1.9c-0.8-0.5-1.7-0.7-2.7-0.7s-1.9,0.2-2.7,0.7
			s-1.4,1.1-1.9,1.9c-0.5,0.8-0.7,1.8-0.7,2.9c0,1.1,0.2,2.1,0.7,2.9c0.5,0.8,1.1,1.5,1.9,2c0.8,0.5,1.7,0.7,2.7,0.7
			C7.9,426.8,8.8,426.6,9.6,426.1z"/>
		<path id="XMLID_332_" class="st1" d="M19.1,407.1H22v22.1h-2.9V407.1z"/>
	</g>
</g>
</svg>
