<svg xmlns="http://www.w3.org/2000/svg" viewBox="0 0 512 512"><!--! Font Awesome Pro 6.4.0 by @fontawesome - https://fontawesome.com License - https://fontawesome.com/license (Commercial License) Copyright 2023 Fonticons, Inc.--><path fill="#fff" d="M142.9 142.9c62.2-62.2 162.7-62.5 225.3-1L327 183a24.03 24.03 0 0 0 17 41h128c13.3 0 24-10.7 24-24V72a24.03 24.03 0 0 0-41-17l-41.6 41.6c-87.6-86.5-228.7-86.2-315.8 1-24.4 24.4-42 53.1-52.8 83.8-5.9 16.7 2.9 34.9 19.5 40.8s34.9-2.9 40.8-19.5c7.7-21.8 20.2-42.3 37.8-59.8zM16 312v128a24.03 24.03 0 0 0 41 17l41.6-41.6c87.6 86.5 228.7 86.2 315.8-1a223.4 223.4 0 0 0 52.9-83.7c5.9-16.7-2.9-34.9-19.5-40.8s-34.9 2.9-40.8 19.5c-7.7 21.8-20.2 42.3-37.8 59.8-62.2 62.2-162.7 62.5-225.3 1L185 329a24.03 24.03 0 0 0-17-41H40c-13.3 0-24 10.7-24 24z"/></svg>
